<svg xmlns="http://www.w3.org/2000/svg" viewBox="0 0 1280 720">
  <defs>
    <linearGradient id="sky" x1="0" x2="1" y1="0" y2="1">
      <stop offset="0" stop-color="#07111f"/>
      <stop offset="0.52" stop-color="#121212"/>
      <stop offset="1" stop-color="#051d2d"/>
    </linearGradient>
    <filter id="glow"><feGaussianBlur stdDeviation="5" result="b"/><feMerge><feMergeNode in="b"/><feMergeNode in="SourceGraphic"/></feMerge></filter>
  </defs>
  <rect width="1280" height="720" fill="url(#sky)"/>
  <path d="M0 590 C270 520 420 500 650 545 C880 590 1040 565 1280 500 L1280 720 L0 720Z" fill="#171717"/>
  <path d="M565 720 L638 390 L713 720Z" fill="#262626"/>
  <path d="M637 700 L642 612 M648 560 L653 500 M659 455 L664 410" stroke="#f59e0b" stroke-width="8" stroke-linecap="round" filter="url(#glow)"/>
  <g filter="url(#glow)" opacity=".82">
    <path d="M80 210 H1210" stroke="#38bdf8" stroke-width="2" stroke-dasharray="12 18"/>
    <path d="M120 280 H1160" stroke="#38bdf8" stroke-width="1" stroke-dasharray="6 20"/>
    <circle cx="825" cy="445" r="18" fill="#38bdf8"/>
    <circle cx="436" cy="482" r="14" fill="#f59e0b"/>
  </g>
  <g transform="translate(755 430)">
    <rect x="0" y="0" width="210" height="72" rx="13" fill="#d9e2ea"/>
    <rect x="134" y="-36" width="58" height="42" rx="8" fill="#b8c7d2"/>
    <circle cx="42" cy="75" r="20" fill="#05080c"/>
    <circle cx="165" cy="75" r="20" fill="#05080c"/>
    <rect x="198" y="22" width="12" height="18" fill="#38bdf8" filter="url(#glow)"/>
  </g>
</svg>

