<svg xmlns="http://www.w3.org/2000/svg" viewBox="0 0 920 620" role="img" aria-label="Photo print service desk">
  <rect width="920" height="620" rx="18" fill="#e9f6fd"/>
  <rect y="380" width="920" height="240" fill="#d9e3ea"/>
  <rect x="64" y="80" width="270" height="200" rx="14" fill="#ffffff" stroke="#b8d9ea" stroke-width="4"/>
  <rect x="84" y="100" width="230" height="160" rx="8" fill="#7cc7ee"/>
  <circle cx="135" cy="138" r="30" fill="#ffd16a"/>
  <path d="M85 236 160 172l54 46 40-34 60 52v24H85z" fill="#2b8fc0"/>
  <rect x="384" y="54" width="240" height="300" rx="14" fill="#ffffff" stroke="#ffb5aa" stroke-width="4" transform="rotate(5 504 204)"/>
  <rect x="410" y="86" width="188" height="210" rx="10" fill="#ff735f"/>
  <circle cx="474" cy="150" r="42" fill="#ffffff" opacity=".85"/>
  <path d="M410 265c54-62 96-42 127-86 22 39 43 44 61 86z" fill="#ffd7d2"/>
  <rect x="600" y="250" width="230" height="290" rx="16" fill="#ffffff" stroke="#b8d9ea" stroke-width="4" transform="rotate(-6 715 395)"/>
  <rect x="626" y="282" width="180" height="170" rx="10" fill="#17202a"/>
  <path d="M626 421c38-76 84-50 115-108 18 50 36 58 65 108z" fill="#6fbde8"/>
  <rect x="110" y="400" width="300" height="78" rx="12" fill="#ffffff" stroke="#b8d9ea" stroke-width="3"/>
  <rect x="142" y="425" width="138" height="12" rx="6" fill="#2585b8"/>
  <rect x="142" y="449" width="214" height="12" rx="6" fill="#d9e3ea"/>
  <rect x="462" y="420" width="230" height="74" rx="12" fill="#ffffff" stroke="#ffb5aa" stroke-width="3"/>
  <circle cx="500" cy="457" r="22" fill="#ff735f"/>
  <rect x="538" y="438" width="118" height="12" rx="6" fill="#17202a"/>
  <rect x="538" y="462" width="90" height="12" rx="6" fill="#d9e3ea"/>
</svg>
